<?xml version="1.0" encoding="UTF-8"?>
<svg version="1.1" xmlns="http://www.w3.org/2000/svg" width="512" height="512">
<path d="M0 0 C5.44558109 3.23819449 9.33522474 7.4349599 11.85546875 13.27734375 C13.04680143 20.5444731 12.61273887 26.89143858 8.48046875 33.08984375 C8.83827925 36.84384064 10.66145165 38.65159294 13.25630188 41.26008606 C14.06806885 42.08320282 14.87983582 42.90631958 15.71620178 43.75437927 C17.06191505 45.09569664 17.06191505 45.09569664 18.43481445 46.46411133 C19.38473488 47.42137167 20.33403003 48.37925283 21.28274536 49.33770752 C23.86036439 51.93755397 26.44755819 54.52766658 29.03725839 57.11547303 C31.1970597 59.27515475 33.35250478 61.43915886 35.50807256 63.60306472 C40.59135229 68.70558116 45.68276968 73.79987798 50.77905273 78.8894043 C56.04164227 84.14534515 61.28928 89.41588783 66.52998096 94.69364625 C71.02723124 99.22154266 75.53403979 103.73976788 80.04858845 108.25041693 C82.74616708 110.94592362 85.439797 113.64510643 88.12410927 116.35383034 C90.64688603 118.89878907 93.18132838 121.43151038 95.72539139 123.95518494 C97.10468662 125.32941803 98.47159146 126.71605176 99.83815002 128.10295105 C100.65837646 128.91196869 101.47860291 129.72098633 102.32368469 130.55451965 C103.38917274 131.62107646 103.38917274 131.62107646 104.4761858 132.70917988 C106.37179811 134.33621334 106.37179811 134.33621334 108.61477947 133.86011791 C109.53829566 133.4788322 109.53829566 133.4788322 110.48046875 133.08984375 C111.14304687 132.82945312 111.805625 132.5690625 112.48828125 132.30078125 C113.18695313 132.02492187 113.885625 131.7490625 114.60546875 131.46484375 C120.3888384 129.53388316 125.77091303 129.69245771 131.4921875 131.84765625 C136.99523244 134.68870765 141.18695603 139.33594342 143.48046875 145.08984375 C144.32304266 152.29163342 144.70318925 159.40417517 140.1328125 165.3671875 C123.18866034 183.03236741 92.46173986 192.6247802 68.41064453 193.25097656 C66.91575418 193.27066185 65.42077646 193.28436646 63.92578125 193.29296875 C63.1143869 193.29975647 62.30299255 193.30654419 61.4670105 193.3135376 C58.84645735 193.33046434 56.22607301 193.33673367 53.60546875 193.33984375 C52.27153076 193.34334839 52.27153076 193.34334839 50.91064453 193.34692383 C36.24294288 193.3614725 21.97584459 192.4943708 7.48046875 190.08984375 C7.61678711 190.972771 7.61678711 190.972771 7.75585938 191.87353516 C9.92065232 206.4692353 10.8072789 220.85652812 10.85546875 235.58984375 C10.86296143 236.37578918 10.8704541 237.16173462 10.87817383 237.97149658 C11.17938212 276.45688043 -2.82721073 310.31581519 -29.32421875 337.95703125 C-34.59263889 343.25154883 -40.44952461 347.75794474 -46.51953125 352.08984375 C-47.37417969 352.70085937 -47.37417969 352.70085937 -48.24609375 353.32421875 C-69.238276 368.08584463 -94.85229255 376.12993226 -120.515625 376.29296875 C-121.25878967 376.29980179 -122.00195435 376.30663483 -122.76763916 376.31367493 C-125.16414983 376.33067798 -127.5604638 376.33700141 -129.95703125 376.33984375 C-130.773461 376.34184784 -131.58989075 376.34385193 -132.43106079 376.34591675 C-167.96474083 376.36723896 -167.96474083 376.36723896 -176.51953125 372.08984375 C-176.21233154 373.2389624 -175.90513184 374.38808105 -175.58862305 375.57202148 C-174.53065585 379.82085364 -173.88299727 384.02527005 -173.4140625 388.375 C-173.33017776 389.14844254 -173.24629303 389.92188507 -173.15986633 390.71876526 C-172.34746431 398.8312227 -172.18201664 406.91842059 -172.20385742 415.06665039 C-172.20702616 417.52339833 -172.18338775 419.97894526 -172.15820312 422.43554688 C-172.04647519 450.42095706 -179.14311785 479.59753199 -196.51953125 502.08984375 C-201.83907953 507.26471443 -205.83065925 509.38928608 -213.26953125 509.52734375 C-220.78969821 509.41020719 -224.66513167 507.69653128 -230.0390625 502.66796875 C-234.18804391 498.22006937 -235.29481434 493.56172976 -235.83203125 487.65234375 C-235.51275683 484.01261536 -234.67915127 481.3187009 -233.2734375 477.984375 C-233.02464844 477.35917969 -232.77585938 476.73398437 -232.51953125 476.08984375 C-232.26528287 475.4775633 -232.01103449 474.86528284 -231.74908161 474.23444843 C-231.27186728 471.9781187 -231.27186728 471.9781187 -232.91581249 470.0643568 C-233.63422471 469.34405946 -234.35263693 468.62376211 -235.09281921 467.88163757 C-235.91025101 467.05010666 -236.7276828 466.21857574 -237.56988525 465.36184692 C-238.48356873 464.45828461 -239.3972522 463.55472229 -240.33862305 462.6237793 C-241.29853339 461.65709634 -242.25737624 460.68935236 -243.21522522 459.72062683 C-245.8236475 457.08936233 -248.44769824 454.47421716 -251.0754621 451.86228538 C-253.81973446 449.13064652 -256.5518149 446.38685858 -259.2858429 443.64497375 C-263.87975876 439.04195389 -268.48413388 434.44959386 -273.09448242 429.86303711 C-278.4292607 424.55547145 -283.74578642 419.23013211 -289.05318707 413.89520043 C-293.60537151 409.32034736 -298.16720131 404.75528406 -302.73727733 400.19830352 C-305.46902377 397.47436393 -308.19725182 394.74713125 -310.91684532 392.01105309 C-313.47388153 389.43960407 -316.04278027 386.88063672 -318.62146568 384.33090401 C-320.01982229 382.94234434 -321.40585009 381.54140368 -322.79153442 380.14019775 C-324.0388308 378.91405006 -324.0388308 378.91405006 -325.31132507 377.66313171 C-326.03162242 376.9447195 -326.75191977 376.22630728 -327.4940443 375.48612499 C-329.40677919 373.84313925 -329.40677919 373.84313925 -331.65705585 374.31719685 C-332.57898118 374.69965706 -332.57898118 374.69965706 -333.51953125 375.08984375 C-334.51339844 375.48042969 -334.51339844 375.48042969 -335.52734375 375.87890625 C-336.22601563 376.15476562 -336.9246875 376.430625 -337.64453125 376.71484375 C-343.4279009 378.64580434 -348.80997553 378.48722979 -354.53125 376.33203125 C-360.03429494 373.49097985 -364.22601853 368.84374408 -366.51953125 363.08984375 C-367.36210516 355.88805408 -367.74225175 348.77551233 -363.171875 342.8125 C-346.22772284 325.14732009 -315.50080236 315.5549073 -291.44970703 314.92871094 C-289.95481668 314.90902565 -288.45983896 314.89532104 -286.96484375 314.88671875 C-285.74775223 314.87653717 -285.74775223 314.87653717 -284.506073 314.8661499 C-281.88551985 314.84922316 -279.26513551 314.84295383 -276.64453125 314.83984375 C-275.75523926 314.83750732 -274.86594727 314.8351709 -273.94970703 314.83276367 C-259.28200538 314.818215 -245.01490709 315.6853167 -230.51953125 318.08984375 C-230.65584961 317.2069165 -230.65584961 317.2069165 -230.79492188 316.30615234 C-234.63067655 290.4443141 -237.12740238 260.70259691 -230.51953125 235.08984375 C-230.26212158 234.07736572 -230.26212158 234.07736572 -229.99951172 233.04443359 C-224.44230563 212.01246955 -214.62192769 192.82031717 -199.51953125 177.08984375 C-198.43129812 175.78140345 -197.3477791 174.46902478 -196.26953125 173.15234375 C-174.96876516 148.8714246 -143.18913097 135.2481548 -111.51953125 132.08984375 C-108.78457822 131.97922548 -106.07453326 131.90361301 -103.33984375 131.88671875 C-102.19570007 131.87653717 -102.19570007 131.87653717 -101.02844238 131.8661499 C-98.56709672 131.84924865 -96.10593115 131.84295483 -93.64453125 131.83984375 C-92.38778595 131.83633911 -92.38778595 131.83633911 -91.10565186 131.83276367 C-76.40045076 131.81732109 -62.07058616 132.84325329 -47.51953125 135.08984375 C-47.65584961 134.26806641 -47.65584961 134.26806641 -47.79492188 133.4296875 C-50.11107373 118.82011424 -50.84898507 104.41620545 -50.89453125 89.65234375 C-50.90577026 88.39901245 -50.90577026 88.39901245 -50.91723633 87.12036133 C-51.12679741 58.62843635 -44.24302768 29.03142542 -26.51953125 6.08984375 C-19.10041087 -1.12749624 -10.12362841 -3.65706267 0 0 Z M-7.51953125 82.08984375 C-8.23912306 102.88881478 -7.0525918 123.92657356 -1.51953125 144.08984375 C19.4513122 148.29257696 39.0566709 150.42298893 60.48046875 150.08984375 C56.57753708 145.42150868 52.52536584 140.98940483 48.21557617 136.69555664 C47.6213385 136.09956665 47.02710083 135.50357666 46.41485596 134.88952637 C44.47436967 132.94468236 42.53030109 131.00346707 40.5859375 129.0625 C39.22912736 127.70501561 37.87246565 126.34738286 36.51594543 124.98960876 C33.68583554 122.15803062 30.8539396 119.32825439 28.02075195 116.49975586 C24.38102284 112.86575635 20.74584541 109.2272418 17.11196423 105.58739567 C14.31806912 102.78989923 11.52181186 99.99477373 8.72481728 97.20037651 C7.38238336 95.85861136 6.04069653 94.51609835 4.69975853 93.17283821 C2.83503596 91.30559263 0.96716707 89.44155432 -0.90161133 87.57836914 C-1.45898483 87.01897141 -2.01635834 86.45957367 -2.59062195 85.88322449 C-4.70210341 83.27152113 -4.70210341 83.27152113 -7.51953125 82.08984375 Z M-100.51953125 175.08984375 C-96.61659958 179.75817882 -92.56442834 184.19028267 -88.25463867 188.48413086 C-87.660401 189.08012085 -87.06616333 189.67611084 -86.45391846 190.29016113 C-84.51343217 192.23500514 -82.56936359 194.17622043 -80.625 196.1171875 C-79.26818986 197.47467189 -77.91152815 198.83230464 -76.55500793 200.19007874 C-73.72489804 203.02165688 -70.8930021 205.85143311 -68.05981445 208.67993164 C-64.42008534 212.31393115 -60.78490791 215.9524457 -57.15102673 219.59229183 C-54.35713162 222.38978827 -51.56087436 225.18491377 -48.76387978 227.97931099 C-47.42144586 229.32107614 -46.07975903 230.66358915 -44.73882103 232.00684929 C-42.87409846 233.87409487 -41.00622957 235.73813318 -39.13745117 237.60131836 C-38.58007767 238.16071609 -38.02270416 238.72011383 -37.44844055 239.29646301 C-35.33695909 241.90816637 -35.33695909 241.90816637 -32.51953125 243.08984375 C-32.05553085 229.96894351 -32.6026713 217.21286872 -34.39453125 204.21484375 C-34.56823242 202.95075684 -34.74193359 201.68666992 -34.92089844 200.38427734 C-35.85998866 193.87573982 -36.9864246 187.48469401 -38.51953125 181.08984375 C-59.47829348 177.10791077 -79.14982475 174.74189011 -100.51953125 175.08984375 Z M-165.33203125 203.65234375 C-171.08226636 209.38048558 -171.08226636 209.38048558 -175.51953125 216.08984375 C-175.10014881 219.86761797 -173.33067222 221.65945291 -170.70573425 224.29804993 C-169.88555313 225.12958084 -169.06537201 225.96111176 -168.22033691 226.81784058 C-167.31384399 227.72140289 -166.40735107 228.62496521 -165.47338867 229.5559082 C-164.51361614 230.52302057 -163.55446888 231.4907538 -162.59590149 232.45906067 C-159.99142449 235.08576604 -157.37737093 237.70273742 -154.76081252 240.31740212 C-152.57864333 242.49945173 -150.40083012 244.68582381 -148.22289449 246.87209767 C-143.08687734 252.02735189 -137.94272169 257.17438648 -132.79370117 262.31665039 C-127.4765808 267.62712212 -122.17441029 272.95219732 -116.87917823 278.28448707 C-112.33521915 282.85909195 -107.78170155 287.42402657 -103.2204445 291.98138398 C-100.49492073 294.70483577 -97.77334461 297.43196543 -95.06108665 300.16863441 C-92.51204577 302.73985673 -89.95133712 305.29884531 -87.38101006 307.84878349 C-85.98740146 309.23732977 -84.60618368 310.63827702 -83.22531128 312.03948975 C-82.39667068 312.85692154 -81.56803009 313.67435333 -80.71427917 314.51655579 C-79.63772961 315.59417411 -79.63772961 315.59417411 -78.53943157 316.69356251 C-76.63548521 318.32636143 -76.63548521 318.32636143 -74.39871693 317.90887737 C-64.75792122 313.70698507 -52.19927618 301.59176063 -47.51953125 292.08984375 C-47.93823379 288.30959999 -49.70901092 286.52355865 -52.34005737 283.8883667 C-53.16168365 283.05828094 -53.98330994 282.22819519 -54.82983398 281.37295532 C-55.73789795 280.47096405 -56.64596191 279.56897278 -57.58154297 278.63964844 C-58.54295174 277.6741743 -59.50372119 276.70806316 -60.46389771 275.74136353 C-63.07265767 273.11892192 -65.69082463 270.50606471 -68.31118155 267.89521694 C-71.05025259 265.16373589 -73.78200251 262.424949 -76.5149231 259.68731689 C-81.10466072 255.09212073 -85.70068953 250.50328812 -90.30029297 245.91796875 C-95.62221722 240.61238089 -100.9332344 235.29605851 -106.23873317 229.97404933 C-110.79121225 225.40796981 -115.34949481 220.8477458 -119.91270649 216.29239202 C-122.63949721 213.57028451 -125.36420582 210.8461761 -128.0837059 208.11678314 C-130.63946139 205.55238091 -133.20240708 202.99539216 -135.77116013 200.44401169 C-137.16516509 199.05588479 -138.55176671 197.66033572 -139.93817139 196.26461792 C-140.76543732 195.44581146 -141.59270325 194.627005 -142.44503784 193.78338623 C-143.16365934 193.06589581 -143.88228085 192.34840538 -144.62267876 191.60917282 C-150.98484069 186.51324806 -160.89419983 199.32753011 -165.33203125 203.65234375 Z M-190.51953125 265.08984375 C-190.98353165 278.21074399 -190.4363912 290.96681878 -188.64453125 303.96484375 C-188.38397949 305.86097412 -188.38397949 305.86097412 -188.11816406 307.79541016 C-187.17907384 314.30394768 -186.0526379 320.69499349 -184.51953125 327.08984375 C-163.52481634 331.11478282 -143.92471517 333.43813279 -122.51953125 333.08984375 C-126.42246292 328.42150868 -130.47463416 323.98940483 -134.78442383 319.69555664 C-135.3786615 319.09956665 -135.97289917 318.50357666 -136.58514404 317.88952637 C-138.52563033 315.94468236 -140.46969891 314.00346707 -142.4140625 312.0625 C-143.77087264 310.70501561 -145.12753435 309.34738286 -146.48405457 307.98960876 C-149.31416446 305.15803062 -152.1460604 302.32825439 -154.97924805 299.49975586 C-158.61897716 295.86575635 -162.25415459 292.2272418 -165.88803577 288.58739567 C-168.68193088 285.78989923 -171.47818814 282.99477373 -174.27518272 280.20037651 C-175.61761664 278.85861136 -176.95930347 277.51609835 -178.30024147 276.17283821 C-180.16496404 274.30559263 -182.03283293 272.44155432 -183.90161133 270.57836914 C-184.45898483 270.01897141 -185.01635834 269.45957367 -185.59062195 268.88322449 C-187.70210341 266.27152113 -187.70210341 266.27152113 -190.51953125 265.08984375 Z M-283.51953125 358.08984375 C-279.61659958 362.75817882 -275.56442834 367.19028267 -271.25463867 371.48413086 C-270.660401 372.08012085 -270.06616333 372.67611084 -269.45391846 373.29016113 C-267.51343217 375.23500514 -265.56936359 377.17622043 -263.625 379.1171875 C-262.26818986 380.47467189 -260.91152815 381.83230464 -259.55500793 383.19007874 C-256.72489804 386.02165688 -253.8930021 388.85143311 -251.05981445 391.67993164 C-247.42008534 395.31393115 -243.78490791 398.9524457 -240.15102673 402.59229183 C-237.35713162 405.38978827 -234.56087436 408.18491377 -231.76387978 410.97931099 C-230.42144586 412.32107614 -229.07975903 413.66358915 -227.73882103 415.00684929 C-225.87409846 416.87409487 -224.00622957 418.73813318 -222.13745117 420.60131836 C-221.58007767 421.16071609 -221.02270416 421.72011383 -220.44844055 422.29646301 C-218.33695909 424.90816637 -218.33695909 424.90816637 -215.51953125 426.08984375 C-214.75666604 405.14332555 -216.67173535 384.50736251 -221.51953125 364.08984375 C-242.52467876 359.83994349 -262.0557147 357.73748914 -283.51953125 358.08984375 Z " fill="#F27C7C" transform="translate(367.51953125,1.91015625)"/>
<path d="M0 0 C5.44558109 3.23819449 9.33522474 7.4349599 11.85546875 13.27734375 C13.04680143 20.5444731 12.61273887 26.89143858 8.48046875 33.08984375 C8.83827925 36.84384064 10.66145165 38.65159294 13.25630188 41.26008606 C14.06806885 42.08320282 14.87983582 42.90631958 15.71620178 43.75437927 C16.61334396 44.64859085 17.51048615 45.54280243 18.43481445 46.46411133 C19.38473488 47.42137167 20.33403003 48.37925283 21.28274536 49.33770752 C23.86036439 51.93755397 26.44755819 54.52766658 29.03725839 57.11547303 C31.1970597 59.27515475 33.35250478 61.43915886 35.50807256 63.60306472 C40.59135229 68.70558116 45.68276968 73.79987798 50.77905273 78.8894043 C56.04164227 84.14534515 61.28928 89.41588783 66.52998096 94.69364625 C71.02723124 99.22154266 75.53403979 103.73976788 80.04858845 108.25041693 C82.74616708 110.94592362 85.439797 113.64510643 88.12410927 116.35383034 C90.64688603 118.89878907 93.18132838 121.43151038 95.72539139 123.95518494 C97.10468662 125.32941803 98.47159146 126.71605176 99.83815002 128.10295105 C100.65837646 128.91196869 101.47860291 129.72098633 102.32368469 130.55451965 C103.38917274 131.62107646 103.38917274 131.62107646 104.4761858 132.70917988 C106.37179811 134.33621334 106.37179811 134.33621334 108.61477947 133.86011791 C109.53829566 133.4788322 109.53829566 133.4788322 110.48046875 133.08984375 C111.14304687 132.82945312 111.805625 132.5690625 112.48828125 132.30078125 C113.18695313 132.02492187 113.885625 131.7490625 114.60546875 131.46484375 C120.3888384 129.53388316 125.77091303 129.69245771 131.4921875 131.84765625 C136.99523244 134.68870765 141.18695603 139.33594342 143.48046875 145.08984375 C144.32304266 152.29163342 144.70318925 159.40417517 140.1328125 165.3671875 C123.18866034 183.03236741 92.46173986 192.6247802 68.41064453 193.25097656 C66.91575418 193.27066185 65.42077646 193.28436646 63.92578125 193.29296875 C63.1143869 193.29975647 62.30299255 193.30654419 61.4670105 193.3135376 C58.84645735 193.33046434 56.22607301 193.33673367 53.60546875 193.33984375 C52.27153076 193.34334839 52.27153076 193.34334839 50.91064453 193.34692383 C36.24294288 193.3614725 21.97584459 192.4943708 7.48046875 190.08984375 C7.61678711 190.972771 7.61678711 190.972771 7.75585938 191.87353516 C9.92065232 206.4692353 10.8072789 220.85652812 10.85546875 235.58984375 C10.86296143 236.37578918 10.8704541 237.16173462 10.87817383 237.97149658 C11.17938212 276.45688043 -2.82721073 310.31581519 -29.32421875 337.95703125 C-34.59263889 343.25154883 -40.44952461 347.75794474 -46.51953125 352.08984375 C-47.37417969 352.70085937 -47.37417969 352.70085937 -48.24609375 353.32421875 C-69.23837456 368.08591393 -94.85221403 376.12974295 -120.515625 376.29296875 C-121.25874435 376.29984711 -122.00186371 376.30672546 -122.76750183 376.31381226 C-125.16406192 376.33092553 -127.56041324 376.33727092 -129.95703125 376.33984375 C-130.77379333 376.3415155 -131.59055542 376.34318726 -132.43206787 376.34490967 C-169.6301027 376.34946278 -169.6301027 376.34946278 -177.51953125 371.08984375 C-178.1796875 369.00537109 -178.1796875 369.00537109 -178.58203125 366.42578125 C-178.8155127 365.00048096 -178.8155127 365.00048096 -179.05371094 363.54638672 C-179.28429199 362.02102295 -179.28429199 362.02102295 -179.51953125 360.46484375 C-179.85703868 358.37092678 -180.19558604 356.27717718 -180.53515625 354.18359375 C-180.78168945 352.63285156 -180.78168945 352.63285156 -181.03320312 351.05078125 C-181.90110894 345.76666389 -182.96023607 340.5211908 -184.00390625 335.26953125 C-184.45863587 332.46536524 -184.62637731 329.92126421 -184.51953125 327.08984375 C-177.16060586 327.69303436 -169.92744873 328.77042525 -162.64916992 329.9855957 C-152.23464959 331.69518377 -141.97959134 332.30145691 -131.43505859 332.33007812 C-129.28703783 332.3397648 -127.13998451 332.3708814 -124.9921875 332.40234375 C-112.77741731 332.49705976 -101.36743782 330.62096694 -89.95703125 326.08984375 C-89.29896484 325.84234375 -88.64089844 325.59484375 -87.96289062 325.33984375 C-84.23362017 323.90349485 -80.92602846 322.1596142 -77.51953125 320.08984375 C-76.85953125 320.08984375 -76.19953125 320.08984375 -75.51953125 320.08984375 C-75.51953125 319.42984375 -75.51953125 318.76984375 -75.51953125 318.08984375 C-73.93886751 316.86377758 -72.30189608 315.7100571 -70.64453125 314.58984375 C-61.77407547 308.27334953 -54.76655836 301.10082362 -48.89453125 291.92578125 C-48.44078125 291.31992187 -47.98703125 290.7140625 -47.51953125 290.08984375 C-46.85953125 290.08984375 -46.19953125 290.08984375 -45.51953125 290.08984375 C-45.24882812 289.4040625 -44.978125 288.71828125 -44.69921875 288.01171875 C-43.87500995 285.97030094 -43.02377146 283.93968103 -42.15234375 281.91796875 C-29.81921043 252.65074045 -32.19091414 222.93968456 -37.18695068 192.15997314 C-37.66410538 189.18995004 -38.12000879 186.21673777 -38.578125 183.24372864 C-40.98659911 167.65540439 -43.46930462 152.08692698 -46.87084961 136.6784668 C-49.98938707 122.12395757 -50.87379153 107.4823577 -50.83520508 92.63085938 C-50.83203234 90.09071315 -50.85568419 87.55172371 -50.88085938 85.01171875 C-50.9881341 57.29841332 -43.7142302 28.34694138 -26.51953125 6.08984375 C-19.10041087 -1.12749624 -10.12362841 -3.65706267 0 0 Z M-7.51953125 82.08984375 C-8.23912306 102.88881478 -7.0525918 123.92657356 -1.51953125 144.08984375 C19.4513122 148.29257696 39.0566709 150.42298893 60.48046875 150.08984375 C56.57753708 145.42150868 52.52536584 140.98940483 48.21557617 136.69555664 C47.6213385 136.09956665 47.02710083 135.50357666 46.41485596 134.88952637 C44.47436967 132.94468236 42.53030109 131.00346707 40.5859375 129.0625 C39.22912736 127.70501561 37.87246565 126.34738286 36.51594543 124.98960876 C33.68583554 122.15803062 30.8539396 119.32825439 28.02075195 116.49975586 C24.38102284 112.86575635 20.74584541 109.2272418 17.11196423 105.58739567 C14.31806912 102.78989923 11.52181186 99.99477373 8.72481728 97.20037651 C7.38238336 95.85861136 6.04069653 94.51609835 4.69975853 93.17283821 C2.83503596 91.30559263 0.96716707 89.44155432 -0.90161133 87.57836914 C-1.45898483 87.01897141 -2.01635834 86.45957367 -2.59062195 85.88322449 C-4.70210341 83.27152113 -4.70210341 83.27152113 -7.51953125 82.08984375 Z " fill="#80B4FA" transform="translate(367.51953125,1.91015625)"/>
<path d="M0 0 C3.37503429 1.46204552 5.55927743 3.32199503 8.13659668 5.92973328 C9.36043312 7.16028442 9.36043312 7.16028442 10.60899353 8.41569519 C11.49534988 9.31709732 12.38170624 10.21849945 13.29492188 11.1472168 C14.24420526 12.10525256 15.19397042 13.06281114 16.1441803 14.01992798 C18.1870654 16.07928606 20.22694244 18.14156228 22.2646637 20.20602989 C25.48539453 23.46812937 28.71535515 26.72098193 31.94714355 29.97212219 C41.13479243 39.2173525 50.31230376 48.47256572 59.47509766 57.74243164 C64.5375607 62.86389235 69.60887144 67.97641819 74.69013071 73.07923251 C77.90724885 76.31102038 81.1129572 79.55359551 84.3108139 82.80443799 C86.29921199 84.82050244 88.29793387 86.82607373 90.29980278 88.82875443 C91.67201912 90.2077446 93.03168803 91.59918472 94.39100647 92.9908905 C95.20689743 93.80279846 96.02278839 94.61470642 96.86340332 95.45121765 C97.56983223 96.16485316 98.27626114 96.87848867 99.00409698 97.6137495 C100.89096313 99.24717657 100.89096313 99.24717657 103.13304901 98.7711153 C103.74914284 98.51664725 104.36523666 98.2621792 105 98 C105.66257812 97.73960937 106.32515625 97.47921875 107.0078125 97.2109375 C107.70648438 96.93507813 108.40515625 96.65921875 109.125 96.375 C114.90836965 94.44403941 120.29044428 94.60261396 126.01171875 96.7578125 C131.51476369 99.5988639 135.70648728 104.24609967 138 110 C138.84257391 117.20178967 139.2227205 124.31433142 134.65234375 130.27734375 C117.70819159 147.94252366 86.98127111 157.53493645 62.93017578 158.16113281 C61.43528515 158.18079693 59.94030759 158.19450277 58.4453125 158.203125 C57.63400879 158.21000336 56.82270508 158.21688171 55.98681641 158.22396851 C53.36616517 158.24111593 50.74570444 158.24742863 48.125 158.25 C47.23504333 158.25167175 46.34508667 158.25334351 45.42816162 158.25506592 C14.23946054 158.25857824 14.23946054 158.25857824 2 155 C-0.6513684 152.3486316 -0.62019111 150.46371055 -1.21875 146.77734375 C-1.42886719 145.51599609 -1.63898438 144.25464844 -1.85546875 142.95507812 C-2.07073483 141.61595324 -2.28557568 140.27675993 -2.5 138.9375 C-2.92505077 136.34211422 -3.35208954 133.74705313 -3.78125 131.15234375 C-3.98492187 129.91597168 -4.18859375 128.67959961 -4.3984375 127.40576172 C-4.90212384 124.55412841 -5.48555596 121.75702232 -6.15625 118.94140625 C-6.94951522 115.57440956 -7.17813796 112.47369025 -7 109 C-6.44763672 109.08040527 -5.89527344 109.16081055 -5.32617188 109.24365234 C0.20941536 110.04739026 5.74734461 110.83296044 11.28662109 111.61083984 C13.56554786 111.9376897 15.83939832 112.28477233 18.11328125 112.64453125 C26.3053121 113.84695183 34.2403684 114.10311001 42.51171875 114.05078125 C44.17334045 114.04528259 44.17334045 114.04528259 45.86853027 114.03967285 C48.57905814 114.03017248 51.28950959 114.01685715 54 114 C53.1606189 113.18948685 52.32123779 112.37897369 51.4564209 111.54389954 C43.53445716 103.88593758 35.64740823 96.19351692 27.79285431 88.46641254 C23.75391806 84.49520506 19.70385152 80.53693922 15.62548828 76.60620117 C11.6869076 72.80930319 7.78134265 68.98112687 3.89619446 65.12959862 C2.41157488 63.66892382 0.91559216 62.21970296 -0.59187317 60.78261757 C-12.37696472 49.52614947 -12.37696472 49.52614947 -13.92053223 43.2676239 C-13.95092465 40.00386775 -13.67740519 37.18435253 -13 34 C-12.90106445 33.26124634 -12.80212891 32.52249268 -12.70019531 31.76135254 C-11.08752805 20.9622414 -6.15928226 11.4685226 -1 2 C-0.67 1.34 -0.34 0.68 0 0 Z " fill="#F27C7C" transform="translate(373,37)"/>
<path d="M0 0 C0.81130371 -0.00687836 1.62260742 -0.01375671 2.45849609 -0.02084351 C5.07914733 -0.03799093 7.69960806 -0.04430363 10.3203125 -0.046875 C11.21026917 -0.04854675 12.10022583 -0.05021851 13.01715088 -0.05194092 C44.20585196 -0.05545324 44.20585196 -0.05545324 56.4453125 3.203125 C59.31150938 6.06932188 59.46350836 9.39134326 60.171875 13.24609375 C60.40068863 14.44882683 60.40068863 14.44882683 60.63412476 15.67585754 C60.955521 17.37572029 61.27301256 19.0763252 61.58691406 20.77758789 C62.06555692 23.36491846 62.55913315 25.94906489 63.0546875 28.53320312 C63.36548834 30.18733021 63.675412 31.8416224 63.984375 33.49609375 C64.13121735 34.26302048 64.27805969 35.0299472 64.42935181 35.82011414 C65.25660864 40.36067917 65.58788945 44.5876728 65.4453125 49.203125 C64.89818604 49.12271973 64.35105957 49.04231445 63.78735352 48.95947266 C61.1945261 48.57990243 58.60117419 48.2040269 56.0078125 47.828125 C55.14865234 47.70179688 54.28949219 47.57546875 53.40429688 47.4453125 C50.42008135 47.01437885 47.43344125 46.60605355 44.4453125 46.203125 C43.17107422 46.02668457 41.89683594 45.85024414 40.58398438 45.66845703 C30.769681 44.36896231 21.07674661 43.83046514 11.17871094 43.83251953 C8.81373703 43.82811275 6.45058884 43.79149464 4.0859375 43.75390625 C-11.16170595 43.64178686 -26.05809118 46.80534367 -39.265625 54.85546875 C-41.5546875 56.203125 -41.5546875 56.203125 -43.5546875 56.203125 C-43.5546875 56.863125 -43.5546875 57.523125 -43.5546875 58.203125 C-49.80857238 62.51135681 -56.19121173 64.17660053 -63.79296875 62.796875 C-69.9443862 60.79019902 -74.89257073 56.9629395 -78.22265625 51.43359375 C-80.73752725 45.33447845 -80.82712376 38.04502191 -78.74609375 31.76171875 C-70.44042215 17.07591188 -48.94056404 9.61674995 -33.5546875 5.203125 C-22.4791329 2.30824937 -11.47897352 0.06620377 0 0 Z " fill="#80B3FA" transform="translate(80.5546875,316.796875)"/>
<path d="M0 0 C5.52554535 -0.662957 9.56605879 -0.23902934 14.04307556 3.13978577 C18.40891313 6.84303585 22.40137044 10.9178047 26.40449524 15.00419617 C27.90860138 16.49953385 29.41463187 17.99293816 30.92248535 19.48449707 C34.06770519 22.61060271 37.18834548 25.75887272 40.29341125 28.92485046 C44.26354813 32.96906427 48.28923193 36.95207217 52.33522511 40.92022228 C55.45346277 43.99134284 58.53990075 47.09293476 61.61778831 50.20444679 C63.0901696 51.68546192 64.5721642 53.15698678 66.06398964 54.61841393 C79.11865742 67.46494494 79.11865742 67.46494494 79.20039368 75.84599304 C78.82826233 78.920578 78.82826233 78.920578 78.25996399 81.58622742 C78.10409821 82.64807251 78.10409821 82.64807251 77.94508362 83.73136902 C76.12259982 94.42823308 71.27465119 106.56419662 65.25996399 115.58622742 C61.87494983 114.11860088 59.66059429 112.23809604 57.05848694 109.63871765 C56.22840118 108.81427155 55.39831543 107.98982544 54.54307556 107.14039612 C53.64108429 106.23435638 52.73909302 105.32831665 51.80976868 104.39482117 C50.84408764 103.43185096 49.87798181 102.46930658 48.91148376 101.50715637 C46.29140585 98.89619132 43.67768781 96.27894533 41.06533718 93.66025162 C38.33236285 90.92221453 35.59451317 88.18905956 32.85743713 85.4551239 C28.26404925 80.86537362 23.67489273 76.27142414 19.08808899 71.6750946 C13.77949345 66.35560197 8.46371366 61.04337024 3.14416957 55.734828 C-1.42006409 51.17965763 -5.98040451 46.62061717 -10.53748775 42.05829334 C-13.26062328 39.33203449 -15.98510464 36.60715756 -18.71309662 33.88575745 C-21.27521656 31.32939687 -23.83242873 28.76822788 -26.38586807 26.20319748 C-27.77566109 24.80948106 -29.17040674 23.4207089 -30.56526184 22.03205872 C-31.3840683 21.20761261 -32.20287476 20.3831665 -33.04649353 19.53373718 C-33.76398396 18.81549271 -34.48147438 18.09724823 -35.22070694 17.35723877 C-36.74003601 15.58622742 -36.74003601 15.58622742 -36.74003601 13.58622742 C-19.23847785 4.54554523 -19.23847785 4.54554523 -11.74003601 2.58622742 C-10.70943054 2.2826532 -10.70943054 2.2826532 -9.65800476 1.97294617 C-6.47321461 1.12940715 -3.22096615 0.68912184 0 0 Z " fill="#FEDF7D" transform="translate(73.74003601074219,359.4137725830078)"/>
<path d="M0 0 C3.38501415 1.46762654 5.5993697 3.34813138 8.20147705 5.94750977 C9.44660568 7.18417892 9.44660568 7.18417892 10.71688843 8.4458313 C11.6188797 9.35187103 12.52087097 10.25791077 13.45019531 11.19140625 C14.41587635 12.15437646 15.38198218 13.11692084 16.34848022 14.07907104 C18.96855814 16.6900361 21.58227618 19.30728209 24.19462681 21.9259758 C26.92760114 24.66401289 29.66545082 27.39716786 32.40252686 30.13110352 C36.99591474 34.7208538 41.58507126 39.31480327 46.171875 43.91113281 C51.48047054 49.23062545 56.79625033 54.54285718 62.11579442 59.85139942 C66.68002807 64.40656978 71.2403685 68.96561025 75.79745173 73.52793407 C78.52058727 76.25419293 81.24506863 78.97906986 83.97306061 81.70046997 C86.53518055 84.25683055 89.09239272 86.81799954 91.64583206 89.38302994 C93.03562508 90.77674636 94.43037073 92.16551851 95.82522583 93.5541687 C96.64403229 94.37861481 97.46283875 95.20306091 98.30645752 96.05249023 C99.02394794 96.77073471 99.74143837 97.48897919 100.48067093 98.22898865 C102 100 102 100 102 102 C90.45537609 108.17712344 79.17269493 113.38861333 66 115 C65.28497818 115.18023712 64.56995636 115.36047424 63.83326721 115.5461731 C59.88353296 116.13676142 56.70115825 116.07107105 53.23006439 113.88562584 C48.11100616 109.88637419 43.60590451 105.1976627 39.05078125 100.58203125 C37.54337932 99.08713078 36.03449941 97.59371932 34.5242157 96.10173035 C31.3701229 92.97283445 28.23721095 89.82447491 25.11743164 86.66137695 C21.12816416 82.62066653 17.08729396 78.63658152 13.02836323 74.66600513 C9.90197526 71.59453485 6.80689083 68.492951 3.72005272 65.38178062 C2.24235899 63.90045988 0.75477795 62.42893132 -0.74289513 60.96781349 C-12.37539139 49.57259897 -12.37539139 49.57259897 -13.90945435 43.25419617 C-13.94032203 39.99711569 -13.67118881 37.17887267 -13 34 C-12.90128098 33.26152832 -12.80256195 32.52305664 -12.70085144 31.76220703 C-11.08518578 20.96242731 -6.15998737 11.46981663 -1 2 C-0.67 1.34 -0.34 0.68 0 0 Z " fill="#FEDF7D" transform="translate(373,37)"/>
<path d="M0 0 C3.38501415 1.46762654 5.5993697 3.34813138 8.20147705 5.94750977 C9.44660568 7.18417892 9.44660568 7.18417892 10.71688843 8.4458313 C11.6188797 9.35187103 12.52087097 10.25791077 13.45019531 11.19140625 C14.41587635 12.15437646 15.38198218 13.11692084 16.34848022 14.07907104 C18.96855814 16.6900361 21.58227618 19.30728209 24.19462681 21.9259758 C26.92760114 24.66401289 29.66545082 27.39716786 32.40252686 30.13110352 C36.99591474 34.7208538 41.58507126 39.31480327 46.171875 43.91113281 C51.48047054 49.23062545 56.79625033 54.54285718 62.11579442 59.85139942 C66.68002807 64.40656978 71.2403685 68.96561025 75.79745173 73.52793407 C78.52058727 76.25419293 81.24506863 78.97906986 83.97306061 81.70046997 C86.53518055 84.25683055 89.09239272 86.81799954 91.64583206 89.38302994 C93.03562508 90.77674636 94.43037073 92.16551851 95.82522583 93.5541687 C96.64403229 94.37861481 97.46283875 95.20306091 98.30645752 96.05249023 C99.02394794 96.77073471 99.74143837 97.48897919 100.48067093 98.22898865 C102 100 102 100 102 102 C94.69532922 105.96050119 87.50522616 109.40927387 79.5625 111.875 C78.91345703 112.07762451 78.26441406 112.28024902 77.59570312 112.48901367 C73.41081433 113.73214025 69.34171416 114.56350681 65 115 C64.24601236 115.08259536 63.49202473 115.16519072 62.71518898 115.25028896 C58.07336805 115.53801383 54.90691979 115.48796163 51.21591187 112.47901917 C49.99302679 111.31197201 48.79632025 110.11707652 47.62255859 108.90063477 C46.95785553 108.2518486 46.29315247 107.60306244 45.60830688 106.93461609 C43.42938419 104.79444395 41.28879384 102.62009672 39.1484375 100.44140625 C37.63968455 98.93685278 36.12937504 97.43385875 34.61758423 95.93235779 C31.4596357 92.78462382 28.32016971 89.61982909 25.19287109 86.44165039 C21.18754076 82.37372087 17.14113557 78.34978567 13.0801754 74.33747959 C9.95632616 71.24229694 6.85451914 68.12575626 3.75899124 65.00227165 C2.27513082 63.50990743 0.78471881 62.02402746 -0.71232986 60.54489326 C-2.80309599 58.47232659 -4.86261656 56.37295147 -6.91650391 54.26391602 C-7.53664368 53.66042328 -8.15678345 53.05693054 -8.79571533 52.43515015 C-11.98255252 49.09503932 -13.3644102 46.94210929 -13.39437866 42.24351501 C-13.29335549 40.82651101 -13.16468881 39.41102219 -13 38 C-12.92523438 36.95714844 -12.85046875 35.91429687 -12.7734375 34.83984375 C-11.07420944 22.46213345 -6.6478459 10.58948904 0 0 Z " fill="#FEDF7D" transform="translate(190,220)"/>
<path d="M0 0 C4.36639202 -0.31511058 7.09771287 -0.08404801 10.5354166 2.75253868 C11.75803844 3.91905588 12.95696533 5.11074016 14.135499 6.32178307 C14.80005604 6.96896294 15.46461308 7.61614281 16.1493082 8.28293419 C18.33128933 10.42034643 20.47873775 12.58897269 22.62548923 14.76172447 C24.1359639 16.26359213 25.64769739 17.7641947 27.16063023 19.26358604 C30.323179 22.40837222 33.46865919 25.5690807 36.60327244 28.74170494 C40.61654072 32.80063748 44.67104086 36.81525573 48.73959541 40.81867599 C51.86916963 43.90816358 54.9747079 47.02095556 58.07365322 50.14113808 C59.55929203 51.63092357 61.05248876 53.11321248 62.55334759 54.58766365 C64.65138778 56.65547755 66.71467915 58.75282864 68.77221775 60.86084557 C69.39392857 61.46074303 70.01563938 62.06064049 70.65618992 62.67871666 C74.01070113 66.19372603 75.24367834 68.51356655 75.29429722 73.43887901 C75.03663367 77.86563607 74.32378374 82.12941917 73.24658298 86.42578697 C73.07199558 87.14411705 72.89740818 87.86244713 72.71753025 88.60254478 C70.34343272 97.89506222 67.01884065 107.1126458 61.87158298 115.23828697 C58.48656883 113.77066043 56.27221328 111.89015559 53.67010593 109.29077721 C52.84002018 108.4663311 52.00993443 107.64188499 51.15469456 106.79245567 C50.25270329 105.88641594 49.35071201 104.98037621 48.42138767 104.04688072 C47.45570664 103.08391051 46.48960081 102.12136613 45.52310276 101.15921593 C42.90302484 98.54825088 40.2893068 95.93100488 37.67695618 93.31231117 C34.94398184 90.57427408 32.20613216 87.84111911 29.46905613 85.10718346 C24.87566824 80.51743317 20.28651173 75.9234837 15.69970798 71.32715416 C10.39111245 66.00766152 5.07533265 60.6954298 -0.24421144 55.38688755 C-4.80844509 50.83171719 -9.36878551 46.27267672 -13.92586875 41.7103529 C-16.64900428 38.98409405 -19.37348565 36.25921712 -22.10147762 33.537817 C-24.66359757 30.98145643 -27.22080974 28.42028743 -29.77424908 25.85525703 C-31.16404209 24.46154061 -32.55878774 23.07276846 -33.95364285 21.68411827 C-34.7724493 20.85967216 -35.59125576 20.03522606 -36.43487453 19.18579674 C-37.15236496 18.46755226 -37.86985538 17.74930779 -38.60908794 17.00929832 C-40.12841702 15.23828697 -40.12841702 15.23828697 -40.12841702 13.23828697 C-26.91262205 6.24867525 -14.89706833 1.6678016 0 0 Z " fill="#FEDF7C" transform="translate(260.1284170150757,176.7617130279541)"/>
</svg>
